<?xml version="1.0" encoding="utf-8"?>
<!-- Generator: Adobe Illustrator 21.0.0, SVG Export Plug-In . SVG Version: 6.00 Build 0)  -->
<svg version="1.1" id="Layer_1" xmlns="http://www.w3.org/2000/svg" xmlns:xlink="http://www.w3.org/1999/xlink" x="0px" y="0px"
	 viewBox="0 0 240.2 240.2" style="enable-background:new 0 0 240.2 240.2;" xml:space="preserve">
<style type="text/css">
	.st0{fill:#FFFFFF;}
	.st1{fill:#007957;}
	.st2{fill:#FF6600;}
	.st3{fill:#FE000C;}
	.st4{fill:#007858;}
	.st5{fill:#006546;}
</style>
<path class="st0" d="M226.3,240.2H13.9C6.2,240.2,0,234,0,226.3V13.9C0,6.2,6.2,0,13.9,0h212.4c7.7,0,13.9,6.2,13.9,13.9v212.4
	C240.2,234,234,240.2,226.3,240.2z"/>
<path class="st1" d="M221,227.1H19.2c-3.4,0-6.2-2.8-6.2-6.2V19.2c0-3.4,2.8-6.2,6.2-6.2H221c3.4,0,6.2,2.8,6.2,6.2V221
	C227.1,224.4,224.4,227.1,221,227.1z"/>
<path class="st0" d="M145.4,203.3l0,8l-49.2,0l0-8l-37.2,0c-3.6,0-6.6-3.8-6.6-8.5L36.8,37.4c0-4.7,3.6-8.5,8.1-8.5l150.4,0
	c4.5,0,8.1,3.8,8.1,8.5L188,194.8c0,4.7-3,8.5-6.6,8.5L145.4,203.3z"/>
<path class="st2" d="M63.1,52l100.7,0c-9.9,3.7-40.1,24.2-47.6,37.9l-52.9,0L63.1,52z"/>
<path class="st3" d="M143.4,160.5c-1.4,13.7-1.5,30.4-1.5,48l-43.6,0c0-17.5,0.7-34.2,2.1-48L143.4,160.5z"/>
<polygon class="st4" points="60,129 75.9,129 75.9,135.3 68.9,135.3 68.9,140.7 75.9,140.7 75.9,146 68.9,146 68.9,151.3 
	75.9,151.3 75.9,157.4 60,157.4 "/>
<polygon class="st4" points="97.1,129 113,129 113,135.3 106,135.3 106,140.7 113,140.7 113,146 106,146 106,151.3 113,151.3 
	113,157.4 97.1,157.4 "/>
<polygon class="st4" points="137.9,129 153.9,129 153.9,135.3 146.9,135.3 146.9,140.6 153.9,140.6 153.9,146 146.9,146 
	146.9,151.3 153.9,151.3 153.9,157.4 137.9,157.4 "/>
<polygon class="st4" points="87.9,151.3 94.8,151.3 94.8,157.4 78.9,157.4 78.9,129 87.9,129 "/>
<polygon class="st4" points="114.6,129 119.1,157.4 130.6,157.4 136,129 129.3,129 125.8,148.2 122.5,129 "/>
<rect x="157.6" y="129" class="st4" width="8.6" height="28.4"/>
<path class="st4" d="M166.3,137.4c0.4-3.1,4.9-2.3,4.9-0.5l0,20.4l8.6,0l0-24c0-5.1-7.2-7.1-13.5-2.7"/>
<path class="st3" d="M147.4,125c0.9-10.9,15.7-28.6,30.1-33.2l0-41.9c-39.6,17.7-65.3,44.5-70.9,75L147.4,125z"/>
<path class="st5" d="M158.9,172.5c-1.1,1.1-2.5,1.7-4.1,1.7c-1.6,0-2.9-0.6-4-1.7c-1.1-1.1-1.7-2.5-1.7-4.1c0-1.6,0.6-2.9,1.7-4
	c1.1-1.1,2.5-1.7,4-1.7c1.6,0,2.9,0.6,4.1,1.7c1.1,1.1,1.7,2.5,1.7,4C160.6,170,160.1,171.4,158.9,172.5 M151.4,165
	c-1,1-1.4,2.1-1.4,3.5c0,1.4,0.5,2.5,1.4,3.5c1,1,2.1,1.4,3.5,1.4c1.4,0,2.5-0.5,3.5-1.4c1-1,1.4-2.1,1.4-3.5c0-1.4-0.5-2.5-1.4-3.5
	c-1-1-2.1-1.4-3.5-1.4C153.5,163.5,152.4,164,151.4,165 M154.8,165.3c0.8,0,1.4,0.1,1.7,0.2c0.7,0.3,1,0.8,1,1.6
	c0,0.6-0.2,1-0.6,1.2c-0.2,0.1-0.5,0.2-0.9,0.3c0.5,0.1,0.8,0.3,1.1,0.6c0.2,0.3,0.3,0.7,0.3,1l0,0.5c0,0.1,0,0.3,0,0.5
	c0,0.2,0,0.3,0.1,0.3l0,0.1l-1,0c0,0,0,0,0-0.1c0,0,0,0,0-0.1l0-0.2l0-0.5c0-0.7-0.2-1.2-0.6-1.4c-0.2-0.1-0.7-0.2-1.2-0.2l-0.9,0
	l0,2.5l-1.1,0l0-6.3L154.8,165.3z M156,166.3c-0.3-0.2-0.7-0.2-1.4-0.2l-1,0l0,2.2l1,0c0.5,0,0.8,0,1.1-0.1c0.4-0.2,0.7-0.5,0.7-1
	C156.4,166.8,156.3,166.5,156,166.3"/>
</svg>
